<svg width="16" height="16" viewBox="0 0 16 16" fill="none" xmlns="http://www.w3.org/2000/svg">
<g clip-path="url(#clip0_300_5686)">
<g clip-path="url(#clip1_300_5686)">
<path d="M15.0163 1.64153C14.3779 2.09185 13.671 2.43627 12.9229 2.66153C12.5214 2.19987 11.9878 1.87266 11.3943 1.72415C10.8008 1.57564 10.1759 1.61299 9.60433 1.83117C9.03272 2.04934 8.5419 2.4378 8.19826 2.94401C7.85462 3.45022 7.67474 4.04975 7.68294 4.66153V5.3282C6.51136 5.35858 5.35046 5.09874 4.30362 4.57183C3.25677 4.04492 2.35649 3.26729 1.68294 2.3082C1.68294 2.3082 -0.983724 8.3082 5.01628 10.9749C3.64329 11.9068 2.00771 12.3741 0.349609 12.3082C6.34961 15.6415 13.6829 12.3082 13.6829 4.64153C13.6823 4.45583 13.6645 4.27059 13.6296 4.0882C14.31 3.41719 14.7902 2.57001 15.0163 1.64153V1.64153Z" stroke="#180E19" stroke-width="1.5" stroke-linecap="round" stroke-linejoin="round"/>
</g>
</g>
<defs>
<clipPath id="clip0_300_5686">
<rect width="16" height="16" fill="white"/>
</clipPath>
<clipPath id="clip1_300_5686">
<rect width="16" height="16" fill="white"/>
</clipPath>
</defs>
</svg>
